<?xml version="1.0" encoding="UTF-8" standalone="no"?>
<!-- Created with Inkscape (http://www.inkscape.org/) -->

<svg
   width="128mm"
   height="128mm"
   viewBox="0 0 128 128"
   version="1.1"
   id="svg1"
   inkscape:version="1.3.2 (091e20ef0f, 2023-11-25)"
   sodipodi:docname="datastar_icon.svg"
   xmlns:inkscape="http://www.inkscape.org/namespaces/inkscape"
   xmlns:sodipodi="http://sodipodi.sourceforge.net/DTD/sodipodi-0.dtd"
   xmlns="http://www.w3.org/2000/svg"
   xmlns:svg="http://www.w3.org/2000/svg">
  <sodipodi:namedview
     id="namedview1"
     pagecolor="#505050"
     bordercolor="#eeeeee"
     borderopacity="1"
     inkscape:showpageshadow="0"
     inkscape:pageopacity="0"
     inkscape:pagecheckerboard="0"
     inkscape:deskcolor="#505050"
     inkscape:document-units="mm"
     inkscape:zoom="0.72782688"
     inkscape:cx="278.91248"
     inkscape:cy="271.35574"
     inkscape:window-width="3824"
     inkscape:window-height="2075"
     inkscape:window-x="2568"
     inkscape:window-y="40"
     inkscape:window-maximized="0"
     inkscape:current-layer="layer1" />
  <defs
     id="defs1" />
  <g
     inkscape:label="Layer 1"
     inkscape:groupmode="layer"
     id="layer1"
     transform="translate(-31.750002,10.583327)">
    <path
       id="path1"
       style="fill:#ffffff;stroke-width:0.29734"
       d="m 156.06708,-6.9007817 c -0.53779,-0.5147914 -1.26801,-0.9111969 -1.89679,-1.0089681 -1.14115,-0.1774627 -2.29599,-0.270033 -3.45149,-0.3042866 -0.98475,-0.029219 -2.58152,0.032354 -3.56359,0.1116952 -17.14893,1.3848417 -33.37714,8.60978113 -47.923008,17.5457459 -0.979456,0.6017103 -2.551343,1.6047333 -3.503238,2.2491203 -8.576709,5.806043 -16.27089,12.956736 -22.409866,21.308509 -0.583552,0.793896 -1.8351,1.338356 -2.81704,1.25822 -9.968315,-0.813593 -20.433808,2.617499 -26.808317,10.499855 -0.722646,0.893565 -1.78301,2.429232 -2.407214,3.394411 -3.679933,5.690061 -6.321015,12.243641 -7.145684,18.953448 -0.140206,1.140789 0.237432,3.02124 1.255349,3.512271 1.459179,0.703879 3.400447,0.235079 5.225495,-0.06037 1.132708,-0.183363 2.998732,-0.287297 4.141384,-0.412703 l 14.351727,-1.575654 c 0.979421,-0.107436 1.926792,0.59227 2.005192,1.574014 0.470952,5.897533 -2.002268,11.470783 -3.31804,17.18725 -0.571085,2.481094 1.301425,4.662723 4.033796,4.033796 5.716455,-1.315753 11.288084,-3.79064 17.185608,-3.319681 0.981754,0.07844 1.681452,1.025767 1.574015,2.005193 l -1.574015,14.353366 c -0.125403,1.14264 -0.23098,3.00705 -0.414338,4.13975 -0.29542,1.82504 -0.76421,3.7663 -0.06037,5.22549 0.49103,1.01792 2.373133,1.39719 3.513911,1.25699 6.709816,-0.82466 13.263382,-3.46577 18.953443,-7.14569 0.96518,-0.6242 2.50084,-1.68457 3.39441,-2.40721 7.88235,-6.374505 11.31181,-16.841627 10.49822,-26.809955 -0.0801,-0.981919 0.46596,-2.231851 1.25986,-2.815403 8.35177,-6.138987 15.50084,-13.834801 21.30687,-22.411502 0.64439,-0.951906 1.64741,-2.523798 2.24912,-3.503239 8.93595,-14.545871 16.1609,-30.774067 17.54574,-47.9230057 0.0793,-0.982069 0.14096,-2.57884234 0.11171,-3.5636012 -0.0343,-1.1554873 -0.12518,-2.3087099 -0.30264,-3.4498466 -0.0978,-0.6287794 -0.49541,-1.3602254 -1.0102,-1.8980116 z M 120.19659,20.786313 c 3.95022,3e-6 8.37969,4.429463 8.37969,8.379677 0,0.0542 -3.60286,3.840728 -8.86672,7.502531 -2.92316,2.143653 -9.24222,2.604193 -8.67205,5.943718 0.57538,3.370078 6.62599,1.883833 9.93891,3.118046 5.48356,1.898177 10.71509,4.27963 10.7179,4.287171 1.37713,3.703538 -1.69934,9.30055 -5.45669,10.523249 -0.0978,0.03178 -4.72566,-2.361349 -9.74344,-6.041031 -2.85819,-2.078698 -5.20884,-7.830778 -8.28236,-6.333423 -3.03892,1.4805 0.22702,6.917921 0.29197,10.620585 -0.17057,2.810104 0.16897,8.834708 -0.97446,11.303081 -3.16194,2.413921 -9.343581,1.285889 -11.789694,-1.851206 -0.189422,-0.242822 0.855442,-5.697383 2.728341,-11.108024 1.234222,-3.442829 5.959783,-7.486464 3.605073,-9.841167 -2.382318,-2.382319 -6.496072,2.273117 -9.938901,3.507339 -5.573399,1.929258 -10.937478,2.664767 -11.205347,2.436377 -2.978469,-2.539502 -4.254396,-8.505641 -1.851612,-11.595458 3.696877,-0.695148 7.771413,-0.911572 11.595465,-0.876739 3.572744,0.06496 8.914184,3.315465 10.425925,0.291973 1.53392,-3.067823 -4.222127,-5.521483 -6.430738,-8.379674 -1.037425,-1.857839 -5.834143,-8.027365 -5.944124,-9.841176 1.16447,-3.790629 6.911882,-6.761564 10.62099,-5.358949 0.0651,0.02457 2.450592,5.790751 4.189842,10.815223 1.23422,3.442836 -0.12318,9.55965 3.21578,10.03664 3.3538,0.479111 3.76729,-5.78168 5.84599,-8.769793 3.7011,-5.046962 7.53012,-8.768969 7.60026,-8.76897 z"
       sodipodi:nodetypes="csscsssssssssccssssccsssssssssssscsscscsscscsscscsssscsscscs" />
    <path
       d="m 58.543601,73.370019 c -7.222337,-0.221501 -11.642828,9.715475 -13.322825,15.93616 -1.421529,5.671263 -7.7692,15.862381 -4.4963,19.135281 3.272902,3.2729 13.464018,-3.07477 19.13528,-4.4963 6.220678,-1.68001 16.157656,-6.100495 15.936146,-13.322839 -5.282432,0.223329 -12.988408,5.243558 -19.164475,3.279003 -0.613312,-0.195086 -1.170149,-0.751971 -1.365267,-1.365267 -1.964966,-6.176383 3.054119,-13.883598 3.277441,-19.166038 z"
       fill="currentColor"
       id="path2"
       style="fill:#ffffff;stroke-width:0.29734"
       sodipodi:nodetypes="ccsccaac" />
  </g>
</svg>
