<?xml version="1.0" encoding="UTF-8" standalone="no"?>
<!-- Created with Inkscape (http://www.inkscape.org/) -->

<svg
   width="856.89294mm"
   height="109.69514mm"
   viewBox="0 0 856.89294 109.69514"
   version="1.1"
   id="svg1"
   inkscape:version="1.3.2 (091e20ef0f, 2023-11-25)"
   sodipodi:docname="datastar.svg"
   xmlns:inkscape="http://www.inkscape.org/namespaces/inkscape"
   xmlns:sodipodi="http://sodipodi.sourceforge.net/DTD/sodipodi-0.dtd"
   xmlns="http://www.w3.org/2000/svg"
   xmlns:svg="http://www.w3.org/2000/svg">
  <sodipodi:namedview
     id="namedview1"
     pagecolor="#505050"
     bordercolor="#eeeeee"
     borderopacity="1"
     inkscape:showpageshadow="0"
     inkscape:pageopacity="0"
     inkscape:pagecheckerboard="0"
     inkscape:deskcolor="#505050"
     inkscape:document-units="mm"
     inkscape:zoom="0.1767767"
     inkscape:cx="33.941125"
     inkscape:cy="-195.16147"
     inkscape:window-width="1908"
     inkscape:window-height="2075"
     inkscape:window-x="2568"
     inkscape:window-y="40"
     inkscape:window-maximized="0"
     inkscape:current-layer="layer1" />
  <defs
     id="defs1">
    <inkscape:path-effect
       effect="fillet_chamfer"
       id="path-effect5"
       is_visible="true"
       lpeversion="1"
       nodesatellites_param="IC,0,0,1,0,2.1166667,0,1 @ IC,0,0,1,0,2.1166667,0,1 @ IC,0,0,1,0,2.1166667,0,1 @ IC,0,0,1,0,2.1166667,0,1 @ IC,0,0,1,0,2.1166667,0,1 @ IC,0,0,1,0,2.1166667,0,1 @ IC,0,0,1,0,2.1166667,0,1 @ IC,0,0,1,0,2.1166667,0,1 @ IC,0,0,1,0,2.1166667,0,1 @ IC,0,0,1,0,2.1166667,0,1 @ IC,0,0,1,0,2.1166667,0,1 @ IC,0,0,1,0,2.1166667,0,1 @ IC,0,0,1,0,2.1166667,0,1 @ IC,0,0,1,0,2.1166667,0,1 @ IC,0,0,1,0,2.1166667,0,1 @ IC,0,0,1,0,2.1166667,0,1 @ IC,0,0,1,0,2.1166667,0,1 @ IC,0,0,1,0,2.1166667,0,1 @ IC,0,0,1,0,2.1166667,0,1 @ IC,0,0,1,0,2.1166667,0,1 @ IC,0,0,1,0,2.1166667,0,1 @ IC,0,0,1,0,2.1166667,0,1 @ IC,0,0,1,0,2.1166667,0,1 @ IC,0,0,1,0,2.1166667,0,1 @ IC,0,0,1,0,2.1166667,0,1 @ IC,0,0,1,0,2.1166667,0,1 @ IC,0,0,1,0,2.1166667,0,1 @ IC,0,0,1,0,2.1166667,0,1 @ IC,0,0,1,0,2.1166667,0,1 @ IC,0,0,1,0,2.1166667,0,1 @ IC,0,0,1,0,2.1166667,0,1 @ IC,0,0,1,0,2.1166667,0,1 @ IC,0,0,1,0,2.1166667,0,1 @ IC,0,0,1,0,2.1166667,0,1 @ IC,0,0,1,0,2.1166667,0,1"
       radius="8"
       unit="px"
       method="auto"
       mode="IC"
       chamfer_steps="1"
       flexible="false"
       use_knot_distance="false"
       apply_no_radius="true"
       apply_with_radius="true"
       only_selected="false"
       hide_knots="false" />
    <inkscape:path-effect
       effect="clone_original"
       css_properties=""
       attributes="style,clip-path,mask"
       linkeditem=""
       is_visible="true"
       method="d"
       allow_transforms="true"
       id="path-effect4"
       lpeversion="1" />
    <inkscape:path-effect
       effect="mirror_symmetry"
       start_point="682.29346,368.71437"
       end_point="682.29346,223.16963"
       center_point="682.29346,295.942"
       id="path-effect2"
       is_visible="true"
       lpeversion="1.2"
       lpesatellites=""
       mode="free"
       discard_orig_path="false"
       fuse_paths="true"
       oposite_fuse="false"
       split_items="false"
       split_open="false"
       link_styles="false" />
    <inkscape:path-effect
       effect="fillet_chamfer"
       id="path-effect1"
       is_visible="true"
       lpeversion="1"
       nodesatellites_param="F,0,0,1,0,1.5875,0,1 @ F,0,0,1,0,1.8520833,0,1 @ F,0,0,1,0,1.5875,0,1 @ F,0,0,1,0,1.8520833,0,1 @ F,0,0,1,0,1.8520833,0,1 @ F,0,0,1,0,1.8520833,0,1 @ F,0,0,1,0,1.5875,0,1 @ F,0,0,1,0,1.5875,0,1 @ F,0,0,1,0,1.8520833,0,1 @ F,0,0,1,0,1.8520833,0,1 @ F,0,0,1,0,1.5875,0,1 @ F,0,0,1,0,1.8520833,0,1 @ F,0,0,1,0,1.8520833,0,1 @ F,0,0,1,0,1.8520833,0,1 @ F,0,0,1,0,1.8520833,0,1 @ F,0,0,1,0,1.5875,0,1 | F,0,0,1,0,1.5875,0,1 @ F,0,0,1,0,1.5875,0,1 @ F,0,0,1,0,1.5875,0,1 @ F,0,0,1,0,1.5875,0,1 @ F,0,0,1,0,1.5875,0,1 @ F,0,0,1,0,1.5875,0,1 @ F,0,0,1,0,1.5875,0,1 @ F,0,0,1,0,1.5875,0,1 @ F,0,0,1,0,1.5875,0,1 @ F,0,0,1,0,1.5875,0,1 @ F,0,0,1,0,1.5875,0,1 @ F,0,0,1,0,1.5875,0,1 @ F,0,0,1,0,1.5875,0,1 @ F,0,0,1,0,1.5875,0,1 @ F,0,0,1,0,1.5875,0,1"
       radius="7"
       unit="px"
       method="auto"
       mode="F"
       chamfer_steps="1"
       flexible="false"
       use_knot_distance="true"
       apply_no_radius="true"
       apply_with_radius="true"
       only_selected="false"
       hide_knots="false" />
    <rect
       x="563.14905"
       y="825.01788"
       width="155.12119"
       height="123.05736"
       id="rect2" />
  </defs>
  <g
     inkscape:label="Layer 1"
     inkscape:groupmode="layer"
     id="layer1"
     transform="translate(119.58056,-93.65243)">
    <g
       id="g5"
       transform="rotate(45,411.77952,853.03846)">
      <path
         id="path1"
         style="fill:#ffffff;stroke-width:0.264583"
         d="m 104.99928,87.546594 c -0.66229,0.01447 -1.37117,0.224508 -1.82832,0.558622 -0.82968,0.606358 -1.61456,1.274747 -2.36316,1.980241 -0.638,0.601231 -1.603957,1.644673 -2.17196,2.312521 -9.91886,11.661562 -15.583774,26.418432 -19.113562,41.193352 -0.23768,0.99488 -0.595613,2.61503 -0.789099,3.61942 -1.743321,9.04972 -2.085287,18.39021 -0.692981,27.50788 0.13235,0.8667 -0.312554,1.99676 -0.980819,2.56418 -6.784046,5.76021 -11.210135,14.50403 -10.261389,23.47454 0.107544,1.01693 0.406608,2.65037 0.621151,3.65042 1.264786,5.89566 3.726554,11.681 7.42952,16.42174 0.629573,0.80601 2.050378,1.75159 2.999817,1.42007 1.36101,-0.47524 2.287496,-1.99167 3.249931,-3.3259 0.597334,-0.82808 1.706052,-2.06759 2.34611,-2.86546 l 8.038786,-10.02161 c 0.548657,-0.68386 1.58501,-0.83969 2.252059,-0.2713 4.007092,3.41444 5.95765,8.47733 8.726596,12.90206 1.20179,1.92045 3.75268,2.11495 5.07618,0 2.76895,-4.42471 4.71744,-9.48763 8.72453,-12.90206 0.66708,-0.56837 1.7034,-0.41256 2.25206,0.2713 l 8.04085,10.02161 c 0.64005,0.79786 1.74672,2.03739 2.34405,2.86546 0.96245,1.33421 1.88894,2.85063 3.24993,3.3259 0.94944,0.33152 2.37231,-0.61407 3.00188,-1.42007 3.70298,-4.74074 6.16472,-10.52609 7.42952,-16.42174 0.21454,-1.00005 0.5136,-2.63349 0.62115,-3.65042 0.94874,-8.9705 -3.4794,-17.71432 -10.26345,-23.47454 -0.66825,-0.56741 -1.11111,-1.69748 -0.97876,-2.56418 1.3923,-9.11768 1.04828,-18.45817 -0.69504,-27.50788 -0.19349,-1.0044 -0.55143,-2.62455 -0.7891,-3.61942 -3.5298,-14.77491 -9.1947,-29.53178 -19.11357,-41.193352 -0.568,-0.667848 -1.53393,-1.711318 -2.17196,-2.312521 -0.7486,-0.70548 -1.53142,-1.37389 -2.36109,-1.980241 -0.45715,-0.334114 -1.16757,-0.544155 -1.82986,-0.558622 z m -5.149044,39.990836 c 2.485504,-2.4855 8.059594,-2.4855 10.545094,0 0.0341,0.0341 0.14967,4.68355 -0.85835,10.29963 -0.49047,3.18807 -4.17669,7.45384 -1.71669,9.19634 2.48251,1.75844 5.35444,-2.9838 8.21552,-4.29173 4.64464,-2.25595 9.43478,-4.04924 9.44129,-4.04626 3.19679,1.46379 4.78273,6.9212 3.18791,10.05468 -0.0415,0.0815 -4.45919,1.48764 -9.93169,2.32958 -3.10632,0.49046 -8.20461,-1.64974 -9.19634,1.22628 -0.98057,2.84365 4.49564,4.20996 6.86625,6.49883 1.66081,1.87546 5.66517,5.45254 6.49883,7.72511 -0.47066,3.50837 -5.06995,6.68813 -8.58294,6.25336 -0.27197,-0.0336 -3.04658,-4.12308 -5.27255,-8.70593 -1.38967,-2.94283 -0.9606,-8.46046 -3.92379,-8.46046 -2.99794,0 -2.65711,5.51763 -4.04678,8.46046 -2.292916,4.72072 -5.205242,8.55862 -5.517492,8.58346 -3.471942,0.2762 -8.028696,-2.67491 -8.460982,-6.13089 1.888707,-2.76349 4.316256,-5.46339 6.744291,-7.84759 2.288867,-2.20712 7.694973,-3.52275 6.743773,-6.37635 -0.965148,-2.89544 -6.130745,-0.81756 -9.318809,-1.22628 -1.821719,-0.51621 -8.721749,-1.37999 -9.932211,-2.45205 -1.652396,-3.11778 0.09458,-8.60342 3.310909,-10.05468 0.05642,-0.0255 5.185506,2.10165 9.441285,4.16873 2.942828,1.38968 5.937486,6.0925 8.338506,4.29173 2.41169,-1.80877 -1.26747,-6.00827 -1.83968,-9.19634 -0.84682,-5.50434 -0.779492,-10.25549 -0.735354,-10.29963 z"
         sodipodi:nodetypes="csscsssssssssccssssccsssssssssssscsscscsscscsscscsssscsscscs" />
      <path
         d="m 94.143783,199.41589 c -4.68371,4.40497 -1.212703,13.43878 1.644327,18.40994 2.67396,4.46283 5.09228,14.86914 9.21094,14.86914 4.11866,0 6.53698,-10.40631 9.21094,-14.86914 2.85702,-4.97116 6.32803,-14.00497 1.64431,-18.40994 -3.18322,3.46426 -4.87311,11.47167 -9.99524,14.12158 -0.50865,0.26315 -1.20941,0.26312 -1.71807,0 -5.122589,-2.64985 -6.813977,-10.65732 -9.997207,-14.12158 z"
         fill="currentColor"
         id="path2"
         style="fill:#ffffff;stroke-width:0.264583"
         sodipodi:nodetypes="ccsccaac" />
    </g>
    <text
       xml:space="preserve"
       style="font-style:normal;font-variant:normal;font-weight:normal;font-stretch:normal;font-size:115.908px;font-family:Orbitron;-inkscape-font-specification:'Orbitron, @wght=700';font-variant-ligatures:normal;font-variant-caps:normal;font-variant-numeric:normal;font-variant-east-asian:normal;font-variation-settings:'wght' 700;fill:#ffffff;stroke-width:0.264583"
       x="-126.30322"
       y="190.22688"
       id="text2"><tspan
         sodipodi:role="line"
         id="tspan2"
         style="font-style:normal;font-variant:normal;font-weight:normal;font-stretch:normal;font-size:115.908px;font-family:Orbitron;-inkscape-font-specification:'Orbitron, @wght=700';font-variant-ligatures:normal;font-variant-caps:normal;font-variant-numeric:normal;font-variant-east-asian:normal;font-variation-settings:'wght' 700;stroke-width:0.264583"
         x="-126.30322"
         y="190.22688">DATASTAR</tspan></text>
  </g>
</svg>
