<?xml version="1.0" encoding="UTF-8" standalone="no"?>
<svg
   width="32"
   height="32"
   viewBox="0 0 24 24"
   version="1.1"
   id="svg1"
   sodipodi:docname="favicon.svg"
   inkscape:version="1.3 (0e150ed6c4, 2023-07-21)"
   xmlns:inkscape="http://www.inkscape.org/namespaces/inkscape"
   xmlns:sodipodi="http://sodipodi.sourceforge.net/DTD/sodipodi-0.dtd"
   xmlns="http://www.w3.org/2000/svg"
   xmlns:svg="http://www.w3.org/2000/svg">
  <defs
     id="defs1" />
  <sodipodi:namedview
     id="namedview1"
     pagecolor="#505050"
     bordercolor="#eeeeee"
     borderopacity="1"
     inkscape:showpageshadow="0"
     inkscape:pageopacity="0"
     inkscape:pagecheckerboard="0"
     inkscape:deskcolor="#505050"
     inkscape:zoom="11.313709"
     inkscape:cx="12.462757"
     inkscape:cy="4.6403882"
     inkscape:window-width="2036"
     inkscape:window-height="1015"
     inkscape:window-x="4612"
     inkscape:window-y="1739"
     inkscape:window-maximized="0"
     inkscape:current-layer="svg1" />
  <path
     fill="#ffffff"
     d="M 12,23.58873 8.5644032,20.20441 H 3.7955897 V 15.435597 L 0.41127049,12 3.7955897,8.5644032 V 3.7955897 H 8.5644032 L 12,0.41127049 15.435597,3.7955897 H 20.20441 V 8.5644032 L 23.58873,12 20.20441,15.435597 v 4.768813 h -4.768813 z m 0,-1.200935 3.055234,-3.055234 h 4.277327 V 15.055234 L 22.387795,12 19.332561,8.9447663 V 4.6674392 H 15.055234 L 12,1.6122055 8.9447663,4.6674392 H 4.6674392 V 8.9447663 L 1.6122055,12 4.6674392,15.055234 v 4.277327 H 8.9447663 Z M 7.7310506,18.317614 12,15.282532 16.26895,18.317614 15.00212,13.118213 18.932482,10.181069 13.850144,9.5924677 12,5.1823854 10.149856,9.5924677 5.0675179,10.181069 8.99788,13.118213 Z"
     id="path1"
     sodipodi:nodetypes="ccccccccccccccccccccccccccccccccccccccccccccc" />
</svg>
